<?xml version="1.0" encoding="UTF-8"?>
<!-- Generator: Adobe Illustrator 22.0.1, SVG Export Plug-In . SVG Version: 6.00 Build 0)  -->
<svg version="1.1" id="OBJECTS" xmlns="http://www.w3.org/2000/svg" xmlns:xlink="http://www.w3.org/1999/xlink" x="0px" y="0px" viewBox="0 0 656.6 446" style="enable-background:new 0 0 656.6 446;" xml:space="preserve">
<style type="text/css">
	.st0{fill:none;stroke:#A9C6EA;stroke-miterlimit:10;}
	.st1{fill:none;stroke:#A9C6EA;stroke-miterlimit:10;stroke-dasharray:4.9955,3.4968;}
	.st2{fill:#E4ECF9;}
	.st3{fill:#D7E3F4;}
	.st4{fill:none;stroke:#FFFFFF;stroke-miterlimit:10;}
	.st5{fill:#B2CDED;}
	.st6{fill:none;stroke:#648ACC;stroke-miterlimit:10;}
	.st7{fill:#F886BC;}
	.st8{fill:#BF2C4C;}
	.st9{fill:#28364C;}
	.st10{fill:#101D54;}
	.st11{fill:none;stroke:#273B7A;stroke-width:0.75;stroke-miterlimit:10;}
	.st12{fill:#E03B5A;}
	.st13{fill-rule:evenodd;clip-rule:evenodd;fill:#E03B5A;}
	.st14{fill:none;stroke:#A31D4A;stroke-width:0.75;stroke-miterlimit:10;}
	.st15{fill-rule:evenodd;clip-rule:evenodd;fill:#F886BC;}
	.st16{fill:#0B0B3A;}
	.st17{fill:none;stroke:#0B0B3A;stroke-width:0.5;stroke-linecap:round;stroke-miterlimit:10;}
	.st18{fill:#FFFFFF;}
	.st19{fill:#D9E4F4;stroke:#648ACC;stroke-miterlimit:10;}
	.st20{fill:#FFFFFF;stroke:#648ACC;stroke-miterlimit:10;}
	.st21{opacity:0.45;fill:#D7E3F4;}
	.st22{fill:#FDD305;}
	.st23{fill:#FFEE99;}
	.st24{opacity:0.55;}
	.st25{fill:#FFC043;}
	.st26{fill:#475577;}
	.st27{fill:#FFCD5C;stroke:#FFC043;stroke-width:3;stroke-linecap:round;stroke-linejoin:round;stroke-miterlimit:10;}
	.st28{fill:#648ACC;}
	.st29{fill:#F46072;}
	.st30{fill:#0C3656;}
	.st31{fill:#00276F;}
	.st32{fill:none;stroke:#00276F;stroke-width:0.75;stroke-linecap:round;stroke-linejoin:round;stroke-miterlimit:10;}
	.st33{fill:#212237;}
	.st34{fill:#4868EF;}
	.st35{fill:#22252D;}
	.st36{fill:none;stroke:#474B51;stroke-width:0.75;stroke-miterlimit:10;}
	.st37{fill:none;stroke:#28364C;stroke-width:0.75;stroke-miterlimit:10;}
	.st38{fill:#103BB2;}
	.st39{fill:#F2B18F;}
	.st40{fill:#0070E4;}
	.st41{fill:none;stroke:#0B2E6B;stroke-width:0.75;stroke-miterlimit:10;}
	.st42{fill:#D8CAC0;}
	.st43{fill:none;stroke:#846A6A;stroke-width:0.75;stroke-miterlimit:10;}
</style>
<g>
	<g>
		<g>
			<g>
				<path class="st0" d="M62.1,375.9c-0.8-0.2-1.6-0.4-2.4-0.6"/>
				<path class="st1" d="M56.3,374.2c-15.1-4.7-29.6-13.3-39.7-25.3c-35.5-42.2,6.1-96.2,47.5-113.2c20.2-8.3,38.4-18.2,44.3-41.2      c5.7-22-9.9-45-13.9-66c-8.1-42.3,29.9-75,70.1-75c37,0,53.6,14.1,90.3,38.7c27.7,18.6,79.8,29.5,119.8,25.5      c47.6-4.7,65.6-25.5,103.6-42.5c26.1-11.7,62.6-14.2,87,3.1c26.1,18.5,16.2,54.8,19.2,81.8c0.7,6.8,2.5,13.5,5.9,19.4      c21.4,37.8,65.2,39.7,65.2,95.6c0,40.3-64.4,56.3-99.1,61.6"/>
				<path class="st0" d="M554.7,337c-0.8,0.1-1.7,0.2-2.5,0.3"/>
			</g>
		</g>
		<line class="st0" x1="52.1" y1="165.1" x2="66.3" y2="165.1"/>
		<line class="st0" x1="66.3" y1="173" x2="80.6" y2="173"/>
		<line class="st0" x1="487.3" y1="102.8" x2="501.6" y2="102.8"/>
		<line class="st0" x1="478.3" y1="110.7" x2="492.5" y2="110.7"/>
		<line class="st0" x1="500" y1="107" x2="519.4" y2="107"/>
		<line class="st0" x1="624.4" y1="271.9" x2="634.6" y2="271.9"/>
		<line class="st0" x1="615.1" y1="264" x2="629.3" y2="264"/>
		<line class="st0" x1="152.8" y1="64.3" x2="167.1" y2="64.3"/>
		<line class="st0" x1="129.6" y1="236.2" x2="153" y2="236.2"/>
		<line class="st0" x1="158" y1="236.2" x2="170.1" y2="236.2"/>
		<path class="st0" d="M432,206.3c0,2.5-2.1,4.6-4.6,4.6c-2.5,0-4.6-2.1-4.6-4.6c0-2.5,2.1-4.6,4.6-4.6    C429.9,201.7,432,203.7,432,206.3z"/>
		<path class="st0" d="M612.9,174.4c0,2.5-2.1,4.6-4.6,4.6c-2.5,0-4.6-2.1-4.6-4.6s2.1-4.6,4.6-4.6    C610.8,169.8,612.9,171.9,612.9,174.4z"/>
		<path class="st0" d="M442,75.2c0,2.5-2.1,4.6-4.6,4.6s-4.6-2.1-4.6-4.6c0-2.5,2.1-4.6,4.6-4.6S442,72.6,442,75.2z"/>
		<path class="st0" d="M531.9,82.1c0,1.3-1,2.3-2.3,2.3c-1.3,0-2.3-1-2.3-2.3c0-1.3,1-2.3,2.3-2.3C530.9,79.8,531.9,80.8,531.9,82.1    z"/>
		<path class="st0" d="M391.9,254.1c0,1.3-1,2.3-2.3,2.3c-1.3,0-2.3-1-2.3-2.3c0-1.3,1-2.3,2.3-2.3    C390.9,251.8,391.9,252.9,391.9,254.1z"/>
		<path class="st0" d="M125.8,89.9c0,1.3-1,2.3-2.3,2.3s-2.3-1-2.3-2.3c0-1.3,1-2.3,2.3-2.3S125.8,88.6,125.8,89.9z"/>
		<path class="st0" d="M22.3,233c0,1.3-1,2.3-2.3,2.3s-2.3-1-2.3-2.3c0-1.3,1-2.3,2.3-2.3S22.3,231.7,22.3,233z"/>
		<path class="st0" d="M135.1,186.1c0,1.3-1,2.3-2.3,2.3c-1.3,0-2.3-1-2.3-2.3c0-1.3,1-2.3,2.3-2.3    C134.1,183.8,135.1,184.8,135.1,186.1z"/>
		<g>
			<line class="st0" x1="64.4" y1="115" x2="64.4" y2="120.4"/>
			<line class="st0" x1="67.1" y1="117.7" x2="61.7" y2="117.7"/>
		</g>
		<g>
			<line class="st0" x1="381.5" y1="42.7" x2="381.5" y2="48.1"/>
			<line class="st0" x1="384.2" y1="45.4" x2="378.8" y2="45.4"/>
		</g>
		<g>
			<line class="st0" x1="552.1" y1="126.5" x2="552.1" y2="131.9"/>
			<line class="st0" x1="554.8" y1="129.2" x2="549.4" y2="129.2"/>
		</g>
		<g>
			<line class="st0" x1="640.7" y1="199" x2="640.7" y2="204.4"/>
			<line class="st0" x1="643.4" y1="201.7" x2="638" y2="201.7"/>
		</g>
		<g>
			<line class="st0" x1="615.1" y1="294.1" x2="615.1" y2="299.5"/>
			<line class="st0" x1="617.8" y1="296.8" x2="612.4" y2="296.8"/>
		</g>
		<g>
			<path class="st2" d="M459.9,234c1.7-3,3.1-6.3,4.2-9.8c1-3.5,1.6-7,1.8-10.5l-9.6-1.3c0.1-3.2-0.3-6.5-1.1-9.5l9.1-3.4     c-1.9-6.9-5.4-13.3-10.2-18.6l-7.8,5.9c-2.2-2.3-4.7-4.3-7.5-6l4-8.8c-3-1.7-6.3-3.1-9.8-4.2c-3.5-1-7-1.6-10.5-1.8l-1.3,9.6     c-3.2-0.1-6.4,0.3-9.5,1.1l-3.4-9.1c-6.9,1.9-13.3,5.4-18.6,10.2l5.9,7.8c-2.3,2.2-4.3,4.7-6,7.5l-8.8-4c-1.7,3-3.1,6.3-4.2,9.8     c-1,3.5-1.6,7-1.8,10.5l9.6,1.3c-0.1,3.2,0.3,6.5,1.1,9.5l-9.1,3.4c1.9,6.9,5.4,13.3,10.2,18.6l7.8-5.9c2.2,2.3,4.7,4.3,7.5,6     l-4,8.8c3,1.7,6.3,3.1,9.8,4.2c3.5,1,7,1.6,10.5,1.8l1.3-9.6c3.2,0.1,6.5-0.3,9.5-1.1l3.4,9.1c6.9-1.9,13.3-5.4,18.6-10.2     l-5.9-7.8c2.3-2.2,4.3-4.7,6-7.5L459.9,234z M413.8,233.6c-12.2-3.6-19.2-16.3-15.7-28.6c3.6-12.2,16.3-19.2,28.6-15.7     s19.2,16.3,15.7,28.6C438.8,230.1,426.1,237.1,413.8,233.6z M415.5,227.8c-9-2.6-14.2-12-11.6-21.1c2.6-9,12-14.2,21.1-11.6     c9,2.6,14.2,12,11.6,21.1C434,225.2,424.5,230.4,415.5,227.8z"/>
		</g>
		<g>
			<path class="st2" d="M469.7,140.2c-0.2-1.7-0.5-3.5-1.1-5.2c-0.6-1.7-1.3-3.3-2.2-4.8l-4.3,2.2c-0.9-1.3-1.9-2.5-3.1-3.6l2.8-3.9     c-2.7-2.3-5.9-3.9-9.4-4.7l-1.5,4.6c-1.5-0.3-3.1-0.4-4.7-0.3l-0.8-4.7c-1.7,0.2-3.5,0.5-5.2,1.1c-1.7,0.6-3.3,1.3-4.8,2.2     l2.2,4.3c-1.3,0.9-2.5,1.9-3.6,3.1l-3.9-2.8c-2.3,2.7-3.9,5.9-4.7,9.4l4.6,1.5c-0.3,1.5-0.4,3.1-0.3,4.7l-4.7,0.8     c0.2,1.7,0.5,3.5,1.1,5.2c0.6,1.7,1.3,3.3,2.2,4.8l4.3-2.2c0.9,1.3,1.9,2.5,3.1,3.6l-2.8,3.9c2.7,2.3,5.9,3.9,9.4,4.7l1.5-4.6     c1.5,0.3,3.1,0.4,4.7,0.3l0.8,4.7c1.7-0.2,3.5-0.5,5.2-1.1c1.7-0.6,3.3-1.3,4.8-2.2L457,157c1.3-0.9,2.5-1.9,3.6-3.1l3.9,2.8     c2.3-2.7,3.9-5.9,4.7-9.4l-4.6-1.5c0.3-1.5,0.4-3.1,0.3-4.7L469.7,140.2z M450.3,151.2c-5,1.7-10.4-1-12.1-6.1     c-1.7-5,1-10.4,6.1-12.1c5-1.7,10.4,1,12.1,6.1C458,144.1,455.3,149.5,450.3,151.2z"/>
		</g>
		<g>
			<path class="st2" d="M233.5,107.8c-0.2-2.6-0.8-5.3-1.6-7.9c-0.9-2.6-2-5.1-3.4-7.3l-6.6,3.3c-1.3-2.1-2.9-3.9-4.7-5.5l4.2-6     c-4.2-3.5-9.1-5.9-14.4-7.2l-2.3,7c-2.3-0.5-4.8-0.7-7.2-0.5l-1.3-7.2c-2.6,0.2-5.3,0.8-7.9,1.6c-2.6,0.9-5.1,2-7.3,3.4l3.3,6.6     c-2.1,1.3-3.9,2.9-5.5,4.7l-6-4.2c-3.5,4.2-5.9,9.1-7.2,14.4l7,2.3c-0.5,2.3-0.7,4.8-0.5,7.2l-7.2,1.3c0.2,2.6,0.8,5.3,1.6,7.9     c0.9,2.6,2,5.1,3.4,7.3l6.6-3.3c1.3,2.1,2.9,3.9,4.7,5.5l-4.2,6c4.2,3.5,9.1,5.9,14.4,7.2l2.3-7c2.3,0.5,4.8,0.7,7.2,0.5l1.3,7.2     c2.6-0.2,5.3-0.8,7.9-1.6c2.6-0.9,5.1-2,7.3-3.4l-3.3-6.6c2.1-1.3,3.9-2.9,5.5-4.7l6,4.2c3.5-4.2,5.9-9.1,7.2-14.4l-7-2.3     c0.5-2.3,0.7-4.8,0.5-7.2L233.5,107.8z M203.8,124.6c-7.7,2.6-16-1.6-18.5-9.3c-2.6-7.7,1.6-16,9.3-18.5c7.7-2.6,16,1.6,18.5,9.3     C215.6,113.8,211.4,122.1,203.8,124.6z"/>
		</g>
		<g>
			<path class="st2" d="M167.7,162.4c1-1.7,1.8-3.6,2.4-5.6c0.6-2,0.9-4,1-6l-5.5-0.8c0-1.8-0.2-3.7-0.6-5.4l5.2-1.9     c-1.1-3.9-3.1-7.5-5.8-10.5l-4.4,3.3c-1.2-1.3-2.7-2.5-4.2-3.4l2.3-5c-1.7-1-3.6-1.8-5.6-2.4c-2-0.6-4-0.9-6-1l-0.8,5.5     c-1.8,0-3.7,0.2-5.4,0.6l-1.9-5.2c-3.9,1.1-7.5,3.1-10.5,5.8l3.3,4.4c-1.3,1.2-2.5,2.7-3.4,4.2l-5-2.3c-1,1.7-1.8,3.6-2.4,5.6     c-0.6,2-0.9,4-1,6l5.5,0.8c0,1.8,0.2,3.7,0.6,5.4l-5.2,1.9c1.1,3.9,3.1,7.5,5.8,10.5l4.4-3.3c1.2,1.3,2.7,2.5,4.2,3.4l-2.3,5     c1.7,1,3.6,1.8,5.6,2.4c2,0.6,4,0.9,6,1l0.8-5.5c1.8,0,3.7-0.2,5.4-0.6l1.9,5.2c3.9-1.1,7.5-3.1,10.5-5.8l-3.3-4.4     c1.3-1.2,2.5-2.7,3.4-4.2L167.7,162.4z M141.6,162.2c-6.9-2-10.9-9.3-8.9-16.2c2-6.9,9.3-10.9,16.2-8.9c6.9,2,10.9,9.3,8.9,16.2     C155.8,160.2,148.5,164.2,141.6,162.2z M142.6,158.9c-5.1-1.5-8-6.8-6.6-11.9c1.5-5.1,6.8-8,11.9-6.6c5.1,1.5,8,6.8,6.6,11.9     C153,157.4,147.7,160.4,142.6,158.9z"/>
		</g>
	</g>
	<g>
		<g>
			<g>
				<path class="st3" d="M293.6,436.6c3-6.3,18.9-33.8,35.7-42.9c2.1-1.2,4.4-2.2,6.8-2.5c2.4-0.2,5,0.5,6.5,2.5      c1.3,1.8,1.5,4.2,1.1,6.3c-3,17.2-22.6,23.8-32.2,36.5"/>
			</g>
			<path class="st3" d="M293.6,436.5c0,0,15.8-31.1,31.1-49.6c7.3-8.8,12.3-25,4.6-29.9c-11.1-7-22,8.6-26.9,16.4     c-7.5,11.8-13.1,24.8-17.4,38.1c-0.6,1.9-6.3,25-6.4,25c0,0,3.8,0,3.8,0H293.6z"/>
			<path class="st4" d="M323.7,365.9c-14.5,18.4-26.6,45.5-34.6,70.6"/>
			<path class="st5" d="M260.5,436.5c0,0-1.8-47.8-23-70c-5.7-6-15.1-12.2-22.8-13.9c-10-2.2-9.7,9.5-7.9,17.1     c2.3,9.8,10.4,16,16.2,23.3c10.7,13.5,17.1,22.4,24.8,43.4"/>
			<path class="st3" d="M266.9,436.5c5.7-10.5,3.7-55.2,0.8-69.2c-2-9.7-6.1-19.2-11.7-27c-5.1-7-20.2-22.6-29.1-16.3     c-5.2,3.6,2.7,16.8,4.7,20.7c6.7,12.8,12,26.5,16.1,40.5c4.8,16.3,8.4,33.4,9.7,50.5c0,0.2,0,0.4,0,0.7"/>
			<path class="st5" d="M268,436.5c-1.9-25-0.7-63.5,10.6-85.2c12.8-24.6,29.5-36,31.9-26.4c7,27.8-21.2,102.6-29.1,111.5"/>
			<path class="st4" d="M212,360.7c22.8,15.9,38.5,46,41.4,75.9"/>
			<path class="st4" d="M235.3,332.1c11.2,10,16.9,25.6,20.3,40.8c4.7,20.8,7,42.2,7.8,63.7"/>
			<path class="st4" d="M303.3,335.5c-13.8,31.7-25.4,65.9-27.3,101"/>
			<path class="st4" d="M335.8,397.3c0,0-20.1,13.4-34.2,39.2"/>
		</g>
		<g>
			<path class="st5" d="M541.8,436.4c3-39.5-0.3-78.3,14.7-115.8c4.3-10.6,14-27.4,27.5-28c20.8-0.9,8.1,40.9,4.3,56.6     c-2.4,10.1-6,20.1-9.8,29.7c-6.7,17.1-16.7,40.9-24.2,57.5"/>
			<path class="st3" d="M531,436.4c-6.6-16.8-13-33.6-19.4-50.4c-5.7-14.9-12.4-29.5-17.1-44.7c-3.5-11.6-12.7-38.3,0.7-46.5     c23.8-14.6,42.8,41.9,45.4,62c3.3,26.5,2.6,53.1,3,79.7"/>
			<path class="st5" d="M512.1,436.4c0,0-13.9-17.8-20.2-26.1c-14-18.6-31.3-38.8-28.7-59.8c0.6-4.8,2.4-10.2,7.2-13     c3-1.7,6.6-2.2,10-1.9c11.4,1.1,21.6,17.6,26.7,26.1c10,16.6,25.6,74.7,25.6,74.7"/>
			<path class="st4" d="M501.4,306.5c17,34.4,33.6,98,34,129.9"/>
			<path class="st4" d="M475,346c14.9,28.7,45.3,90.5,45.3,90.5"/>
			<path class="st4" d="M583.2,301.8c-12.2,27.2-28.9,86.2-35.6,134.8"/>
			<path class="st3" d="M554.9,436.4c0,0,7-31,11.8-48.6c5.2-19.1,22.4-48.4,40.4-56.7c4.1-1.9,9.1-3.2,13.1-1     c2.5,1.3,4.1,3.8,5,6.5c3.1,8.9-11.9,37.2-17.1,45.1c-10.1,15.5-24.6,40.2-36,54.8"/>
			<path class="st4" d="M616.8,337.4c-21.3,18.5-49.8,77.4-57.7,99.1"/>
		</g>
		<g>
			<path class="st5" d="M93,417.2c-2.7-14.5-7.2-43.1-10.6-60.7c-1.6-8.5-6.4-18.9-9.4-27c-5.5-14.7-18.8-40.3-35.3-39     c-20.4,1.7-3.9,38.5,1.3,52.3c3.3,8.9,7.9,17.7,12.5,26c8.2,14.8,20.3,35.5,29.3,49.8"/>
			<path class="st5" d="M104.8,401.6c-5-13.1-3.6-29.7-3.6-43.5c0-24.9,8.7-59.8,24.9-76.1c6.7-6.7,17.7-14.2,24.9-3.9     c6.8,9.7-1.1,36.2-3.5,47.6c-4.8,22.3-28.1,63.5-34.8,85.1"/>
			<path class="st4" d="M139.1,289.4c-11.5,29.8-27,84.3-30.9,116"/>
			<path class="st4" d="M39.5,298.8c14.6,23.4,35.9,73.7,47.2,117.4"/>
			<path class="st3" d="M93.6,385.6c6.1-10,13.4-42.6,15.1-54.3c2.3-16.4,2.6-33.7-1.5-49.8c-2.7-10.9-15.3-43.4-31-28.8     c-7.4,6.9-6.2,44.5-5.3,54.5c1.7,19.7,11.9,55,15.4,74.4"/>
			<path class="st4" d="M84.9,261.1c10.8,28.1,8.1,97.9,4.7,122.3"/>
		</g>
	</g>
	<line class="st6" x1="-2.2" y1="436.5" x2="625.6" y2="436.5"/>
	<g>
		<g>
			<g>
				<path class="st7" d="M251.1,153.8c3.1-3,10.5-13.3,11.4-13c0.8,0.3-1.7,3.9-1,4c0.7,0.1,5.1-5.2,5.8-4.8      c1.1,0.6-3.7,5.9-3.7,5.9s5.5-5.5,6.2-4.6c0.5,0.6-3.4,4.9-4.8,6.8c1.7-1.8,4.8-4.5,5.3-3.8c0.5,0.6-2.1,3.6-4,6.1      c1.3-1.4,3.9-3.8,4.4-3.3c0.5,0.5-5.9,10.3-11.8,17.4"/>
			</g>
			<path class="st7" d="M212.1,191.2c26.1-22.3,43.6-42.7,43.6-42.7l9.8,6.5c0,0-16.5,25.5-38,47.5"/>
			<path class="st8" d="M204.3,198.7c5.4-6.8,14.3-13.3,14.3-13.3l15.8,12.8l-13.9,16.3"/>
		</g>
		<g>
			<g>
				<path class="st7" d="M231.5,314.7l-8.4,110.2l9.9,6.3c0,0-27.2,1.4-28.1,0.5c-0.9-0.9,1.1-7,1.1-7l-4.5-110.3L231.5,314.7z"/>
				<path class="st9" d="M209.3,431.7l-4.1-4l0.6-2.1l6.2,6.1l3,0l10.6-5.2l11.5,7.2c1.3,0.8,0.7,2.9-0.8,2.9l-15.4-0.1l-4.9-3.4      l-1.4,0l0,3.4l-10,0l0-4.8L209.3,431.7z"/>
			</g>
			<g>
				<path class="st7" d="M209.5,314.1l-24.7,110.8l9.9,6.3c0,0-27.2,1.4-28.1,0.5c-0.9-0.9,1.1-7,1.1-7l7.2-110.7H209.5z"/>
				<path class="st9" d="M171,431.7l-4.1-4l0.6-2.1l6.2,6.1l3,0l10.6-5.2l11.5,7.2c1.3,0.8,0.7,2.9-0.8,2.9l-15.4-0.1l-4.9-3.4      l-1.4,0l0,3.4l-10,0l0-4.8L171,431.7z"/>
			</g>
			<path class="st10" d="M183.6,256.9C170,280.8,170,325.3,170,325.3h63c0,0-0.9-39.1-7.9-61.1L183.6,256.9z"/>
			<line class="st11" x1="204.6" y1="259" x2="206.2" y2="325.3"/>
			<path class="st11" d="M218.6,261.8c0,0-3.2,8.1-13.9,10.9"/>
		</g>
		<g>
			<g>
				<path class="st7" d="M274.2,233.7c4.1,1.2,16.7,2.7,16.9,3.6c0.2,0.9-4.2,0.4-3.9,1.1c0.3,0.7,7.1,1.9,7,2.8      c-0.1,1.2-6.9-0.4-6.9-0.4s7.4,2.1,7.1,3.2c-0.3,0.8-6-0.6-8.3-0.9c2.4,0.6,6.2,2,5.9,2.7c-0.3,0.8-4.2-0.1-7.2-0.6      c1.9,0.5,5.2,1.5,5,2.3c-0.2,0.7-9.9-0.7-19-2.3"/>
			</g>
			<path class="st12" d="M200.2,192.3c0,0,1,2.7,6.7,2.7c3.9,0,5.4-2.1,5.4-2.1s1.5,1.3,17,21.7c3.3,4.3,2.6,13.6-2.9,21.7     c-1.3,8.1-1.8,17.5-1.3,27.9h-45c0,0-0.8-32.3,2.3-50C184.2,203.8,192.1,195.5,200.2,192.3z"/>
			<path class="st7" d="M229.9,206.3c30,23.5,50.8,28.6,50.8,28.6l-2.4,11.5c0,0-36-4.6-59.7-24.5"/>
			<path class="st13" d="M212.5,193.7c7.7,1.3,19.5,12.6,19.5,12.6l-12.5,18.4c0,0-5.3-3.7-12.5-9.9"/>
			<path class="st14" d="M219.4,224c-9.4-5.7-13.6-9.9-13.6-9.9"/>
		</g>
		<g>
			<path class="st15" d="M215.8,172.3c3.1,5.2,4.4,10.3,0,13c-4.4,2.7-11.4,4-15.9-3.4c-3.1-5.2-2.1-11.5,2.3-14.2     C206.6,165.1,212.7,167.2,215.8,172.3z"/>
			<g>
				<path class="st16" d="M212.2,173.7c0.1,0.5,0.6,1.1,1.1,1.1c0.1,0,0.3-0.1,0.3-0.2C213.9,173.7,211.9,172.6,212.2,173.7z"/>
			</g>
			<path class="st17" d="M210.1,173.2c0.8-1.1,1.9-1.6,3-1.7"/>
			<path class="st18" d="M217,178.2l-2.9,1.4c0,0,1,2.5,2.6,2C218,181.3,217,178.2,217,178.2z"/>
			<path class="st15" d="M212.5,193.7c0,0-2.5,1.4-5.6,1.3c-4.5-0.1-6.7-1.9-6.7-1.9l3-12.8l11,0.8L212.5,193.7z"/>
			<path class="st15" d="M214.8,172.6c0,0,3.8,2.5,3.9,3.2c0.1,0.7-1.5,1.6-1.5,1.6"/>
			<g>
				<path class="st16" d="M204.3,164.2c-0.4,0.2-1.8-0.2-2.3-0.2c-0.7,0-1.4,0.1-2.1,0.2c-4.2,0.8-7.3,4.2-9.3,7.8      c-1.3,2.3-2.4,4.9-4.7,6.4c-5.2,3.3-12,2.1-17.8,4c-5.9,2-10.4,8-8.8,14.4c0.5,2.1,1.6,4,2.3,6c1.4,4.4,0.7,9.5,3.4,13.3      c0.7,1,1.6,1.9,2.6,2.6c4.4,3.3,10.4,4.5,15.7,3c5.3-1.5,9.9-5.5,11.9-10.7c2.3-5.8,1.6-12.8,5-18.1c1.6-2.5,4-4.3,5.6-6.8      c1.4-2.3,2.2-6.5,2.4-9.2c0-0.6-1.1-5.9-0.7-5.9c2.7,0,6.2-1.7,7.8-3.3C213.1,163.4,207.9,162.4,204.3,164.2z"/>
			</g>
			<path class="st7" d="M207.2,177.7c0,0-1.6-1.1-2.6,0.5c-1.3,2,1.9,4.5,3.4,4.6c1.5,0.1,1.5-1.6,1.5-1.6"/>
		</g>
	</g>
	<g>
		<g>
			<g>
				<rect x="446.4" y="146" class="st19" width="97.9" height="130.8"/>
			</g>
			<g>
				<rect x="461.1" y="146" class="st20" width="97.9" height="130.8"/>
			</g>
			<path class="st21" d="M542.8,173.2h-64.7c-2,0-3.6-1.6-3.6-3.6v-9.9c0-2,1.6-3.6,3.6-3.6h64.7c2,0,3.6,1.6,3.6,3.6v9.9     C546.4,171.6,544.7,173.2,542.8,173.2z"/>
			<path class="st21" d="M512.2,265.9h-34.2c-2,0-3.6-1.6-3.6-3.6v-40.9c0-2,1.6-3.6,3.6-3.6h34.2c2,0,3.6,1.6,3.6,3.6v40.9     C515.8,264.3,514.2,265.9,512.2,265.9z"/>
			<g>
				<path class="st5" d="M479.8,190.2c0,0-0.4,0-2.2,0c-1.8,0-3.2-1.9-3.2-4.2c0-2.3,1.4-4.2,3.2-4.2c0.3,0,2.2,0,2.2,0V190.2z"/>
				<path class="st3" d="M483,186.1c0,2.3-1.4,4.2-3.2,4.2s-3.2-1.9-3.2-4.2c0-2.3,1.4-4.2,3.2-4.2S483,183.8,483,186.1z"/>
			</g>
			<g>
				<path class="st5" d="M500.9,190.2c0,0-0.4,0-2.2,0s-3.2-1.9-3.2-4.2c0-2.3,1.4-4.2,3.2-4.2c0.3,0,2.2,0,2.2,0V190.2z"/>
				<path class="st3" d="M504.1,186.1c0,2.3-1.4,4.2-3.2,4.2c-1.8,0-3.2-1.9-3.2-4.2c0-2.3,1.4-4.2,3.2-4.2      C502.7,181.9,504.1,183.8,504.1,186.1z"/>
			</g>
			<g>
				<path class="st5" d="M522.1,190.2c0,0-0.4,0-2.2,0c-1.8,0-3.2-1.9-3.2-4.2c0-2.3,1.4-4.2,3.2-4.2c0.3,0,2.2,0,2.2,0V190.2z"/>
				<path class="st3" d="M525.2,186.1c0,2.3-1.4,4.2-3.2,4.2c-1.8,0-3.2-1.9-3.2-4.2c0-2.3,1.4-4.2,3.2-4.2      C523.8,181.9,525.2,183.8,525.2,186.1z"/>
			</g>
			<g>
				<path class="st5" d="M543.2,190.2c0,0-0.4,0-2.2,0c-1.8,0-3.2-1.9-3.2-4.2c0-2.3,1.4-4.2,3.2-4.2c0.3,0,2.2,0,2.2,0V190.2z"/>
				<path class="st3" d="M546.4,186.1c0,2.3-1.4,4.2-3.2,4.2c-1.8,0-3.2-1.9-3.2-4.2c0-2.3,1.4-4.2,3.2-4.2      C544.9,181.9,546.4,183.8,546.4,186.1z"/>
			</g>
			<g>
				<path class="st5" d="M479.8,210.4c0,0-0.4,0-2.2,0c-1.8,0-3.2-1.9-3.2-4.2s1.4-4.2,3.2-4.2c0.3,0,2.2,0,2.2,0V210.4z"/>
				<path class="st3" d="M483,206.3c0,2.3-1.4,4.2-3.2,4.2s-3.2-1.9-3.2-4.2s1.4-4.2,3.2-4.2S483,204,483,206.3z"/>
			</g>
			<g>
				<path class="st5" d="M500.9,210.4c0,0-0.4,0-2.2,0s-3.2-1.9-3.2-4.2s1.4-4.2,3.2-4.2c0.3,0,2.2,0,2.2,0V210.4z"/>
				<path class="st3" d="M504.1,206.3c0,2.3-1.4,4.2-3.2,4.2c-1.8,0-3.2-1.9-3.2-4.2s1.4-4.2,3.2-4.2      C502.7,202.1,504.1,204,504.1,206.3z"/>
			</g>
			<g>
				<path class="st5" d="M522.1,210.4c0,0-0.4,0-2.2,0c-1.8,0-3.2-1.9-3.2-4.2s1.4-4.2,3.2-4.2c0.3,0,2.2,0,2.2,0V210.4z"/>
				<path class="st3" d="M525.2,206.3c0,2.3-1.4,4.2-3.2,4.2c-1.8,0-3.2-1.9-3.2-4.2s1.4-4.2,3.2-4.2      C523.8,202.1,525.2,204,525.2,206.3z"/>
			</g>
			<g>
				<path class="st5" d="M543.2,210.4c0,0-0.4,0-2.2,0c-1.8,0-3.2-1.9-3.2-4.2s1.4-4.2,3.2-4.2c0.3,0,2.2,0,2.2,0V210.4z"/>
				<path class="st3" d="M546.4,206.3c0,2.3-1.4,4.2-3.2,4.2c-1.8,0-3.2-1.9-3.2-4.2s1.4-4.2,3.2-4.2      C544.9,202.1,546.4,204,546.4,206.3z"/>
			</g>
		</g>
		<g>
			<polygon class="st20" points="74.6,436.5 240.8,436.5 240.8,309.2 116.4,309.2 74.6,358.1    "/>
			<polygon class="st19" points="193.6,436.5 254.9,436.5 254.9,309.2 234.6,309.2 193.6,358.1    "/>
			
				<rect x="74.6" y="358.1" transform="matrix(-1 -1.224647e-16 1.224647e-16 -1 268.2709 794.6126)" class="st19" width="119" height="78.4"/>
			<g>
				<path class="st5" d="M204.3,323.5c1.1,1,3.5,0.3,5.2-1.6c1.7-1.9,2.2-4.3,1.1-5.3c-0.8-0.7-2.4-2.2-2.4-2.2l-6.3,6.9      C201.9,321.3,203.1,322.4,204.3,323.5z"/>
				<path class="st3" d="M202.1,321.5c1.1,1,3.5,0.3,5.2-1.6c1.7-1.9,2.2-4.3,1.1-5.3c-1.1-1-3.5-0.3-5.2,1.6      C201.4,318,200.9,320.4,202.1,321.5z"/>
			</g>
			<g>
				<path class="st5" d="M185.8,323.5c1.1,1,3.5,0.3,5.2-1.6c1.7-1.9,2.2-4.3,1.1-5.3c-0.8-0.7-2.4-2.2-2.4-2.2l-6.3,6.9      C183.4,321.3,184.6,322.4,185.8,323.5z"/>
				<path class="st3" d="M183.5,321.5c1.1,1,3.5,0.3,5.2-1.6c1.7-1.9,2.2-4.3,1.1-5.3c-1.1-1-3.5-0.3-5.2,1.6      C182.9,318,182.4,320.4,183.5,321.5z"/>
			</g>
			<g>
				<path class="st5" d="M147.6,323.5c1.1,1,3.5,0.3,5.2-1.6c1.7-1.9,2.2-4.3,1.1-5.3c-0.8-0.7-2.4-2.2-2.4-2.2l-6.3,6.9      C145.3,321.3,146.5,322.4,147.6,323.5z"/>
				<path class="st3" d="M145.4,321.5c1.1,1,3.5,0.3,5.2-1.6c1.7-1.9,2.2-4.3,1.1-5.3c-1.1-1-3.5-0.3-5.2,1.6      C144.8,318,144.3,320.4,145.4,321.5z"/>
			</g>
			<g>
				<path class="st5" d="M128,323.5c1.1,1,3.5,0.3,5.2-1.6c1.7-1.9,2.2-4.3,1.1-5.3c-0.8-0.7-2.4-2.2-2.4-2.2l-6.3,6.9      C125.6,321.3,126.9,322.4,128,323.5z"/>
				<path class="st3" d="M125.8,321.5c1.1,1,3.5,0.3,5.2-1.6c1.7-1.9,2.2-4.3,1.1-5.3c-1.1-1-3.5-0.3-5.2,1.6      C125.1,318,124.6,320.4,125.8,321.5z"/>
			</g>
			<polygon class="st21" points="192.2,349.2 198.8,340.6 98.3,340.6 90.7,349.2    "/>
		</g>
		<path class="st6" d="M303.4,289.7V396c0,5.1-4.2,9.3-9.3,9.3h-59.2c-5.1,0-9.3-4.2-9.3-9.3v-3"/>
		<path class="st6" d="M318.1,294.6v121.5c0,5.2-4.3,9.5-9.5,9.5h-94c-5.1,0-9.3-4.2-9.3-9.3V393"/>
		<path class="st6" d="M344.7,292.5V363c0,5.1,4.2,9.3,9.3,9.3h73.5c5.1,0,9.3-4.2,9.3-9.3V242.3c0-5.1,4.2-9.3,9.3-9.3h30.3"/>
		<path class="st6" d="M332.9,294.6v98.8c0,5.1,4.2,9.3,9.3,9.3h134.9c5.1,0,9.3-4.2,9.3-9.3V256"/>
		<g>
			<g>
				<g>
					<path class="st22" d="M236.6,140c0-48.4,39.2-87.6,87.6-87.6c48.4,0,87.6,39.2,87.6,87.6c0,19.3-6.2,37.1-16.8,51.6h0       c-12.5,18.8-45,40.1-45,52.9V259c0,2.9-2.4,5.3-5.3,5.3h-14.1h-12.9h-14.1c-2.9,0-5.3-2.4-5.3-5.3v-14.6       c0-12.7-32.5-34-45-52.9l0,0C242.9,177.1,236.6,159.3,236.6,140z"/>
				</g>
			</g>
			<g>
				<path class="st18" d="M334.2,262.9c-0.1-2.2-1.7-37.4,1.1-68.2c-3.5,0.4-7.1,0.6-11.1,0.6c-3.9,0-7.6-0.2-11.1-0.6      c2.8,30.8,1.2,66,1.1,68.2l-1.5-0.1c0-0.5,1.6-36.9-1.2-68.3c-26-3.6-37.6-18.3-39.7-32.2c-1.2-8.1,1.6-16.2,6.6-19.2      c3.1-1.8,6.8-2.2,10.7-1.1c6.2,1.8,12.1,7.1,15.7,14.3c4.2,8.3,6.7,22,8.2,36.9c3.5,0.4,7.2,0.7,11.2,0.7c4,0,7.8-0.2,11.2-0.7      c1.4-14.9,3.9-28.6,8.2-36.9c3.7-7.2,9.5-12.5,15.7-14.3c3.9-1.1,7.6-0.8,10.7,1.1c5,3,7.8,11.1,6.6,19.2      c-2.1,13.9-13.7,28.6-39.7,32.2c-2.9,31.4-1.3,67.8-1.2,68.3L334.2,262.9z M363.7,142.8c-1.3,0-2.6,0.2-3.9,0.6      c-5.8,1.7-11.3,6.7-14.8,13.5c-4.1,7.9-6.5,21.3-7.9,36c24.9-3.6,36-17.6,38-30.9c1.1-7.4-1.4-15-5.9-17.7      C367.7,143.3,365.8,142.8,363.7,142.8z M284.8,142.8c-2,0-3.9,0.5-5.6,1.5c-4.5,2.7-7,10.3-5.9,17.7c2,13.3,13.1,27.3,38,30.9      c-1.4-14.6-3.9-28-7.9-36c-3.5-6.8-9-11.8-14.8-13.5C287.3,143,286,142.8,284.8,142.8z"/>
			</g>
			<g>
				<path class="st23" d="M397.3,145c-2.8,0-5-2.3-5-5c0-31.2-21.1-58.3-51.3-65.9c-2.7-0.7-4.3-3.4-3.6-6.1      c0.7-2.7,3.4-4.3,6.1-3.6c34.7,8.8,58.8,39.9,58.8,75.7C402.3,142.8,400.1,145,397.3,145z"/>
			</g>
			<g>
				<path class="st23" d="M322.6,66.8c0,2.8,2.3,5,5,5c2.8,0,5-2.3,5-5c0-2.8-2.3-5-5-5C324.8,61.8,322.6,64.1,322.6,66.8z"/>
			</g>
			<g class="st24">
				<g>
					<g>
						<path class="st25" d="M411.7,145.2c-4.8,35.9-33.8,73.1-87.5,73.1c-53.6,0-81.5-38.9-87.5-73.1c1,17.3,7,33.2,16.6,46.4l0,0        c12.5,18.8,45,40.1,45,52.9V259c0,2.9,2.4,5.3,5.3,5.3h14.1h12.9h14.1c2.9,0,5.3-2.4,5.3-5.3v-14.6c0-12.7,32.5-34,45-52.9h0        C404.7,178.4,410.7,162.5,411.7,145.2z"/>
					</g>
				</g>
			</g>
			<g>
				<path class="st9" d="M352.1,250.7h-55.8v26.6c0,4.3,1.2,8.6,3.6,12.3l0,0c4.4,6.9,12,11.1,20.2,11.1h8.2      c8.2,0,15.8-4.2,20.2-11.1l0,0c2.3-3.7,3.6-7.9,3.6-12.3V250.7z"/>
			</g>
			<g>
				<g>
					<path class="st26" d="M296.4,268.6c0.2,0,0.3,0,0.5,0l55.8-5.8c1.9-0.2,3.2-1.9,3-3.8c-0.3-1.9-2-3.3-3.9-3.1l-55.8,5.8       c-1.9,0.2-3.2,1.9-3,3.8C293.2,267.2,294.7,268.6,296.4,268.6z"/>
				</g>
			</g>
			<g>
				<g>
					<path class="st26" d="M296.4,280.8c0.2,0,0.3,0,0.5,0l55.8-5.8c1.9-0.2,3.2-1.9,3-3.8c-0.3-1.9-2-3.3-3.9-3.1l-55.8,5.8       c-1.9,0.2-3.2,1.9-3,3.8C293.2,279.4,294.7,280.7,296.4,280.8z"/>
				</g>
			</g>
			<g>
				<g>
					<path class="st26" d="M298.6,292.8c0.2,0,0.3,0,0.5,0l52.9-5.5c1.9-0.2,3.2-1.9,3-3.8c-0.3-1.9-2-3.3-3.9-3.1l-52.9,5.5       c-1.9,0.2-3.2,1.9-3,3.8C295.4,291.5,296.9,292.8,298.6,292.8z"/>
				</g>
			</g>
			<g>
				<line class="st27" x1="324.3" y1="15.2" x2="324.3" y2="42.7"/>
				<g>
					<line class="st27" x1="373.9" y1="26.1" x2="362.8" y2="51.3"/>
					<line class="st27" x1="415.8" y1="56.6" x2="395.4" y2="75.2"/>
					<line class="st27" x1="274.6" y1="26.1" x2="285.7" y2="51.3"/>
					<line class="st27" x1="232.7" y1="56.6" x2="253.1" y2="75.2"/>
				</g>
			</g>
		</g>
		<circle class="st28" cx="205.2" cy="393.1" r="1.9"/>
		<circle class="st28" cx="225.6" cy="393.1" r="1.9"/>
		<circle class="st28" cx="486.4" cy="256" r="1.9"/>
		<circle class="st28" cx="497.1" cy="256" r="1.9"/>
		<path class="st28" d="M509.6,256c0,1-0.8,1.9-1.9,1.9c-1,0-1.9-0.8-1.9-1.9c0-1,0.8-1.9,1.9-1.9C508.8,254.1,509.6,255,509.6,256z    "/>
		<circle class="st28" cx="476.4" cy="233" r="1.9"/>
	</g>
	<g>
		
			<ellipse transform="matrix(0.9226 -0.3857 0.3857 0.9226 -100.36 187.8428)" class="st29" cx="417.9" cy="344" rx="39.1" ry="39.1"/>
		
			<ellipse transform="matrix(0.9751 -0.2216 0.2216 0.9751 -65.8401 101.1581)" class="st18" cx="417.9" cy="344" rx="28.3" ry="28.3"/>
		<path class="st29" d="M398.5,344c0,10.7,8.7,19.4,19.4,19.4c10.7,0,19.4-8.7,19.4-19.4c0-10.7-8.7-19.4-19.4-19.4    C407.2,324.6,398.5,333.3,398.5,344z"/>
		<path class="st18" d="M407.7,344c0,5.6,4.6,10.2,10.2,10.2c5.6,0,10.2-4.6,10.2-10.2c0-5.6-4.6-10.2-10.2-10.2    C412.3,333.8,407.7,338.4,407.7,344z"/>
		<g>
			<g>
				<polygon class="st30" points="416.4,345.6 422.8,345.6 416.4,339.2     "/>
			</g>
			<g>
				<polygon class="st30" points="457.8,304.1 465.2,304.1 465.2,302.3 459.7,302.3 459.7,296.8 457.8,296.8     "/>
			</g>
			<g>
				<polygon class="st30" points="461.2,300.8 468.5,300.8 468.5,298.9 463,298.9 463,293.5 461.2,293.5     "/>
			</g>
			<g>
				
					<rect x="409" y="320.8" transform="matrix(0.7071 -0.7071 0.7071 0.7071 -98.5033 405.5395)" class="st30" width="62.6" height="1.8"/>
			</g>
		</g>
	</g>
	<g>
		<g>
			<path class="st7" d="M117,274.2l-4.8,9.2c0,0-3.3,0-7.8-2.2c-4.5-2.2-5.8-5.3-5.8-5.3l8.2-10.8"/>
			<path class="st7" d="M127.2,256.9c4.5,2.6-2.9,19.4-7,20.5c-4.1,1.1-12.1-6.9-14.5-13.6c-2.4-6.7,5.3-10.4,9.9-11.7     C120.1,250.7,127.2,256.9,127.2,256.9z"/>
			<g>
				<g>
					<path class="st31" d="M123.9,265c-0.2,0.3-0.3,0.5-0.4,0.8c-0.2,0.3,0.3,0.6,0.5,0.3c0.1-0.3,0.3-0.6,0.4-0.9       C124.5,264.9,124,264.8,123.9,265L123.9,265z"/>
				</g>
			</g>
			<path class="st32" d="M126.4,263.4c0,0-1-1.5-3.6-1"/>
			<path class="st18" d="M120,271.5l2.9,2c0,0-1.1,2.2-2.1,1.3C119.7,274,120,271.5,120,271.5z"/>
			<g>
				<path class="st33" d="M131.3,260.6c-2-0.7-4.3-1.9-5.8-2.7c-2.1,0.4-4.2,2.4-4.3,4.6c0,0.5-0.1,1.2-0.6,1.2      c-0.3,0-0.6-0.3-0.7-0.6c-0.1-0.3-0.1-0.7-0.2-1c-0.3-0.6-1.1-0.9-1.8-0.7c-0.7,0.2-1.1,0.8-1.4,1.5c-0.7,1.6-1.3,3.6,0.3,5      c0.2,0.2,0.5,0.4,0.7,0.7c0.3,0.6-0.1,1.4-0.5,1.9c-1.2,1.8-3.1,3.8-6.7,3.8c-2.6,0-6.8-3.4-7.1-5.1c0-0.2-2.5-10.5,2.1-17.1      c2.4-3.5,6.7-6.1,11.2-5.7c2.8,0.2,5.2,1.9,6.5,2.9C130.5,250.6,132.1,258.3,131.3,260.6z"/>
			</g>
			<path class="st7" d="M126.9,266.7c0,0,0.7,5-0.3,5.6c-1,0.5-3.1-0.9-3.1-0.9"/>
		</g>
		<g>
			<g>
				<g>
					<g>
						<path class="st7" d="M129,402.6l-3.7,23.6l-0.2,7.1l27.9-0.1c0.7,0,1.2-0.6,1.2-1.2l0,0c0-0.5-0.3-1-0.8-1.1l-12-5.5l4.8-24.6        "/>
						<path class="st34" d="M155.5,433c-0.3-0.9-0.8-1.9-1.3-2.1l-12.8-5.5c-7,2.9-16.1,0.7-16.1,0.7l-1.6,9.6        c0,0.3,0.3,0.6,0.6,0.6l31.1-0.2C155.9,436,155.5,433,155.5,433z"/>
						<path class="st11" d="M144.2,425.9c-0.7,0.9-1.3,1.9-1.8,3"/>
						<path class="st11" d="M145.8,426.8c-0.7,1-1,1.6-1.5,2.6"/>
						<path class="st11" d="M147.1,427.6c-0.5,0.7-1,1.6-1.4,2.4"/>
					</g>
					<line class="st11" x1="123.8" y1="434.1" x2="155.6" y2="434"/>
					<path class="st11" d="M124.7,429.4c0,0,7.5,0.2,8.1,4.7"/>
					<path class="st11" d="M151.6,429.7c0,0-2.1,2.9-2.5,4.3"/>
				</g>
			</g>
			<g>
				<g>
					<g>
						<path class="st7" d="M42.3,408.8l-23.3-2.8l-7.1-0.2l0.1,27.9c0,0.7,0.6,1.2,1.2,1.2l0,0c0.5,0,1-0.3,1.1-0.8l5.5-12l24.1,2.7        "/>
						<path class="st34" d="M12.4,436.2c0.9-0.3,1.9-0.8,2.1-1.3l5.5-12.8c-2.9-7-0.7-16.1-0.7-16.1l-9.6-1.6        c-0.3,0-0.6,0.3-0.6,0.6L9.3,436C9.3,436.6,12.4,436.2,12.4,436.2z"/>
						<path class="st11" d="M19.5,424.9c-0.9-0.7-1.9-1.3-3-1.8"/>
						<path class="st11" d="M18.5,426.5c-1-0.7-1.6-1-2.6-1.5"/>
						<path class="st11" d="M17.8,427.9c-0.7-0.5-1.6-1-2.4-1.4"/>
					</g>
					<line class="st11" x1="11.2" y1="404.5" x2="11.4" y2="436.4"/>
					<path class="st11" d="M15.9,405.4c0,0-0.2,7.5-4.7,8.1"/>
					<path class="st11" d="M15.6,432.3c0,0-2.9-2.1-4.3-2.5"/>
				</g>
			</g>
			<path class="st35" d="M56.2,343.9c-5,13.4,3.2,32.8,3.2,32.8l4.3,31.3l-40.8-1.8l0.4,27.2c0,0,43.8,3.1,54.4,3.1     c10.6,0,14.7-2.4,17.8-8.6c4.6-9.3-2-60.4-2-61.2l-7.3-32.8"/>
			<line class="st36" x1="27.7" y1="406.5" x2="28" y2="433.7"/>
			<path class="st35" d="M70.4,351.2c0,0-4.6,23.7,18.9,28.8c10.5,2.3,37.3,3,37.3,3l-4.6,36.6h26.7c0,0,5.5-27.6,7.2-46     c1.1-12.3-4.2-17.8-14.1-19c-8.4-1-33.7-2.7-33.7-2.7l-4.2-5.3"/>
			<path class="st36" d="M94.5,380.8c0,0-19.8,0.1-24.5-22.1"/>
			<path class="st36" d="M80.5,356.6c0,0,5.4,1,12.3,0.6"/>
			<path class="st36" d="M54.6,353.4c0,0,5.3,1.5,8.7,1.5"/>
			<line class="st36" x1="123.7" y1="414.8" x2="149.7" y2="414.8"/>
		</g>
		<g>
			<g>
				<g>
					<rect x="177.1" y="313.8" class="st28" width="2.1" height="23.2"/>
				</g>
				<circle class="st28" cx="178.1" cy="311.4" r="3.9"/>
			</g>
			<path class="st7" d="M158.4,318.1l7.9,0.6c0,0,6.1-2,8.5-2.1c1.5,0,2.2,0.7,2.2,0.7s0,0.8,0,2.4c0,1.6,2.1,2.3,2.1,1.2v-1.3     c0,0.1,4.4,2.2,1.8,4.1c1.2,0.2,1.8,1.9-0.4,3.1c0.7,0.5,1.6,1.9-0.1,2.9c0.7,1.1-0.8,2.4-2,2.6c-2.3,0.5-20.3,0.1-20.3,0.1"/>
			<path class="st34" d="M112.4,282.5c13,17.9,6,23.7-3.3,69.4c-31.1,0-54.9-5.4-54.9-5.4s7.4-24,21.1-50.7     c6.5-12.7,17.4-19.1,23.6-20.7"/>
			<path class="st34" d="M92.8,302.6c0,0,20,31.3,29.5,32.7c15.1,2.2,40.1,1.6,40.1,1.6l1.5-22.1c0,0-32.1-1.6-33.4-2.4     c-4.3-2.4-18-30-18-30"/>
			<path class="st11" d="M114.1,329.7c0,0-11.7-9.7-19.6-24.9"/>
			<line class="st11" x1="159.2" y1="314.7" x2="157.4" y2="337.1"/>
		</g>
	</g>
	<g>
		<g>
			<g>
				<path class="st7" d="M583.9,280.1c-0.5,4.3-3.9,16.5-3.2,17c0.7,0.5,2-3.8,2.5-3.2c0.5,0.5-1,7.2-0.1,7.5      c1.2,0.4,2.3-6.5,2.3-6.5s-0.9,7.7,0.2,7.7c0.8,0.1,1.7-5.8,2.4-7.9c-0.4,2.4-0.6,6.5,0.2,6.5c0.8,0,1.6-3.9,2.3-6.9      c-0.3,1.9-0.6,5.4,0.2,5.5c0.8,0.1,3.2-9.4,5.2-18.4"/>
			</g>
			<path class="st7" d="M597.9,221.3c0,0,6.9,12.3,7.9,19.9c2.5,18.6-13,50.2-13,50.2s-11.2-3.1-11.2-4.5c0-1.4,7.8-34.5,7.8-34.5     l-11.2-25.9"/>
		</g>
		<g>
			<path class="st7" d="M564.2,180.9l1.5,13.9c0,0-8.3,7.1-15.7-0.8l0.9-9.1L564.2,180.9z"/>
			<path class="st7" d="M552.6,167c0,0-9,12.4-5.3,17.1c2.7,3.4,9.8,3.8,12,2.5c0.5-2.5,6.3-10.9,5.4-12.8     C561.1,166.6,552.6,167,552.6,167z"/>
			<g>
				<path class="st33" d="M566.6,169.1c-0.3-4.7-4.9-6.1-13.8-5.5c-1.2,0.1-3.3-0.7-3.9,0.3c-0.7,1.4-0.9,4.2,0.5,5.5      c0.9,0.8,1.6,1,2.8,1.3c1.6,0.4,3.2,1.9,2.4,3.6c-0.2,0.4-0.8,1.2-0.4,1.6c0.2,0.2,0.7,0.4,1,0.5c0.6,0.3,0.6,1.3,0.2,1.9      c-0.4,0.6-0.2,1.3-0.6,1.9c-0.9,1.4,0.2,4.1,1.7,4.9c1.3,0.8,5.6,2.1,8.7,0.4c2.7-1.4,4.4-5.2,4.4-12.1      C569.6,170.7,567.6,168.9,566.6,169.1z"/>
			</g>
			<path class="st7" d="M553.6,176.2c1.5-1.9,2.6-1.6,3.3-0.5c0.9,1.4-0.9,4.2-1.7,4.7c-1.6,1-3,0.9-3.1-0.5"/>
			<g>
				<g>
					<path class="st9" d="M549.9,173.4c-0.4,0.3-0.8,1-0.6,1.4c0.1,0.1,0.2,0.2,0.3,0.2C550.6,174.9,550.8,172.6,549.9,173.4z"/>
				</g>
			</g>
			<path class="st37" d="M550.1,171.6c0.6,0.2,1.5,0.7,1.9,1.5"/>
			<path class="st18" d="M550,180l-2.1-1.1c0,0-1.4,2.5-0.4,3.1C548.7,182.5,550,180,550,180z"/>
		</g>
		<g>
			<g>
				
					<rect x="519" y="435.1" transform="matrix(-1 7.690673e-04 -7.690673e-04 -1 1070.85 871.1508)" class="st38" width="32.5" height="1.5"/>
				<path class="st35" d="M546.9,423l2.8,0.7c0,0,1.1,3.7,1.5,6.2c0.4,2.6,0.3,5.1,0.3,5.1l-32.5,0c0,0,0.8-2.8,8.6-7.4      c3.1-1.8,4.6-3.8,4.6-3.8L546.9,423z"/>
				<path class="st39" d="M550.2,411.3l-0.5,12.4c0,0-1.4,1.7-6.9,1.7c-5.5,0-10.6-1.5-10.6-1.5l-1.1-16.7"/>
			</g>
			<g>
				
					<rect x="565.3" y="435.1" transform="matrix(-1 7.690649e-04 -7.690649e-04 -1 1163.4495 871.1152)" class="st38" width="32.5" height="1.5"/>
				<path class="st35" d="M593.2,423l2.8,0.7c0,0,1.1,3.7,1.5,6.2c0.4,2.6,0.3,5.1,0.3,5.1l-32.5,0c0,0,0.8-2.8,8.6-7.4      c3.1-1.8,4.6-3.8,4.6-3.8L593.2,423z"/>
				<path class="st39" d="M594.9,410.8l1.1,12.9c0,0-1.4,1.7-6.9,1.7c-5.5,0-10.6-1.5-10.6-1.5l-2.5-16.7"/>
			</g>
			<path class="st40" d="M589.7,282.9c0,0,5.1,10.6,1,30.8c2.1,45.1,7.5,105.7,7.5,105.7l-31-0.1c0,0-6.3-65.2-10.1-97.7     c-4.2-36.2-6.8-80.5-6.8-80.5"/>
			<path class="st41" d="M572.2,419.3c0,0-6.3-65.2-10.1-97.7"/>
			<path class="st40" d="M530.5,285c0,0-3.3,47.6-3.3,70.4c0,22.8-1.5,64.1-1.5,64.1h31.3l11.6-107.9c9.5-11.4,8.8-36.2,6.5-45.9     l-31-8.5L530.5,285z"/>
			<path class="st41" d="M562.3,370.8l6.4-59.3c8-8.9,8-20.2,8-20.2"/>
			<line class="st41" x1="537.1" y1="280.2" x2="529.6" y2="419.4"/>
			<line class="st41" x1="557.6" y1="292.7" x2="572.8" y2="293"/>
			<line class="st41" x1="583.7" y1="292.3" x2="589.4" y2="292.1"/>
		</g>
		<g>
			<g>
				<path class="st7" d="M504.1,212.5c-4.2-4.8-15.6-23.1-16.9-22.8c-1.3,0.3,2.2,5.9,1.1,6c-1.1,0-7-8.3-8.2-7.7      c-1.6,0.9,4.9,9.1,4.9,9.1s-2.5-3.5-3.7-2.3c-0.8,0.8-0.4,2.5,1.4,5.4c-1.2-1.5-2.3-1.7-3.2-0.9c-0.9,0.9,0,2.4,1,4      c-0.8-1-2.1-1.6-2.4-0.5c-0.4,1.4,3,8.8,11.2,20.8"/>
			</g>
			<path class="st42" d="M565.5,193.4c0,0,17.9,0.8,23.3,21.2c2.4,9.2,4,72.3,4,72.3l-65.5-0.4c0,0,0.9-57.1,2.3-69.4     c2.7-22.6,20.5-24,20.5-24s0.8,2,7.8,2C564.8,195,565.5,193.4,565.5,193.4z"/>
			<path class="st42" d="M565.5,193.4c21.3,0,34.4,29.2,34.4,29.2l-13.4,6.7"/>
			<path class="st7" d="M537.4,234.8c0,0-11.4,16.3-20.5,17.2c-12.3,1.2-34.3-39.9-34.3-39.9l13.8-9.3l18.9,23.8l6.5-9.7"/>
			<path class="st42" d="M550.1,193c-18.3,1-31.7,28.3-31.7,28.3l21.5,15.4l12.2-15.9"/>
			<line class="st43" x1="539.1" y1="236.2" x2="549.4" y2="222.7"/>
			<path class="st43" d="M590.7,227.3c-1.2-8.6-4.1-15.9-4.1-15.9"/>
		</g>
		<path class="st7" d="M549.2,174.4c0,0-3,1.4-2.8,2c0.1,0.5,1,1.9,1,1.9"/>
		<line class="st41" x1="525.8" y1="412.7" x2="557.6" y2="412.7"/>
		<line class="st41" x1="566.5" y1="412.9" x2="597.5" y2="412.9"/>
	</g>
</g>
</svg>